<?xml version="1.0" standalone="no"?>
 <!DOCTYPE svg PUBLIC "-//W3C//DTD SVG 1.1//EN" 
 "http://www.w3.org/Graphics/SVG/1.1/DTD/svg11.dtd"> 
<svg xmlns="http://www.w3.org/2000/svg" version="1.1" 
    width="4.572cm" height="3.429cm" viewBox="0 0 18000 13500 ">
<title>SVG Picture created as gamecube-remote-F_Mask.svg date 2013/05/25 15:33:24 </title>
  <desc>Picture generated by PCBNEW </desc>
<g style="fill:#000000; fill-opacity:1;stroke:#000000; stroke-opacity:1;
stroke-linecap:round; stroke-linejoin:round; "
 transform="translate(0 0) scale(1 1)">
</g>
<g style="fill:#000000; fill-opacity:0.0; 
stroke:#000000; stroke-width:59.0551; stroke-opacity:1; 
stroke-linecap:round; stroke-linejoin:round;">
<path d="M14500 1200
L700 1200
" />
<path d="M14500 12500
L700 12500
" />
<path d="M14500 12500
L14500 1200
" />
<path d="M700 1200
L700 12500
" />
</g>
<g style="fill:#000000; fill-opacity:0.0; 
stroke:#000000; stroke-width:19.685; stroke-opacity:1; 
stroke-linecap:round; stroke-linejoin:round;">
</g>
<g style="fill:#000000; fill-opacity:1.0; 
stroke:#000000; stroke-width:19.685; stroke-opacity:1; 
stroke-linecap:round; stroke-linejoin:round;">
<polyline style="fill-rule:evenodd;"
points="7486,9100
7486,8726
7781,8726
7781,9100
7486,9100
" /> 
<polyline style="fill-rule:evenodd;"
points="7840,9100
7840,8726
8135,8726
8135,9100
7840,9100
" /> 
<polyline style="fill-rule:evenodd;"
points="6817,9100
6817,8726
7112,8726
7112,9100
6817,9100
" /> 
<polyline style="fill-rule:evenodd;"
points="7171,9100
7171,8726
7466,8726
7466,9100
7171,9100
" /> 
<polyline style="fill-rule:evenodd;"
points="7425,3786
7425,3413
7720,3413
7720,3786
7425,3786
" /> 
<polyline style="fill-rule:evenodd;"
points="7779,3786
7779,3413
8074,3413
8074,3786
7779,3786
" /> 
<circle cx="11300" cy="6750" r="438.898" /> 
<circle cx="12300" cy="6850" r="438.898" /> 
<circle cx="13300" cy="6750" r="438.898" /> 
<circle cx="11830" cy="11300" r="438.898" /> 
<circle cx="12970" cy="11300" r="438.898" /> 
<circle cx="11830" cy="9000" r="438.898" /> 
<circle cx="12970" cy="9000" r="438.898" /> 
<circle cx="8850" cy="2450" r="438.898" /> 
<circle cx="7850" cy="2350" r="438.898" /> 
<circle cx="6850" cy="2450" r="438.898" /> 
<circle cx="5850" cy="2350" r="438.898" /> 
<circle cx="4850" cy="2450" r="438.898" /> 
<circle cx="3850" cy="2350" r="438.898" /> 
<circle cx="2150" cy="3700" r="438.898" /> 
<circle cx="2050" cy="4700" r="438.898" /> 
<circle cx="2150" cy="5700" r="438.898" /> 
<circle cx="2050" cy="6700" r="438.898" /> 
<circle cx="2150" cy="7700" r="438.898" /> 
<circle cx="2050" cy="8700" r="438.898" /> 
<polyline style="fill-rule:evenodd;"
points="2881,6343
2881,5656
3368,5656
3368,6343
2881,6343
" /> 
<polyline style="fill-rule:evenodd;"
points="3631,6343
3631,5656
4118,5656
4118,6343
3631,6343
" /> 
<polyline style="fill-rule:evenodd;"
points="11881,10443
11881,9756
12368,9756
12368,10443
11881,10443
" /> 
<polyline style="fill-rule:evenodd;"
points="12631,10443
12631,9756
13118,9756
13118,10443
12631,10443
" /> 
<polyline style="fill-rule:evenodd;"
points="12081,8243
12081,7556
12568,7556
12568,8243
12081,8243
" /> 
<polyline style="fill-rule:evenodd;"
points="12831,8243
12831,7556
13318,7556
13318,8243
12831,8243
" /> 
<polyline style="fill-rule:evenodd;"
points="8707,8594
8392,8594
8392,7669
8707,7669
8707,8594
" /> 
<polyline style="fill-rule:evenodd;"
points="8392,8594
8077,8594
8077,7669
8392,7669
8392,8594
" /> 
<polyline style="fill-rule:evenodd;"
points="8077,8594
7762,8594
7762,7669
8077,7669
8077,8594
" /> 
<polyline style="fill-rule:evenodd;"
points="7762,8594
7447,8594
7447,7669
7762,7669
7762,8594
" /> 
<polyline style="fill-rule:evenodd;"
points="7447,8594
7132,8594
7132,7669
7447,7669
7447,8594
" /> 
<polyline style="fill-rule:evenodd;"
points="7132,8594
6817,8594
6817,7669
7132,7669
7132,8594
" /> 
<polyline style="fill-rule:evenodd;"
points="6817,8594
6502,8594
6502,7669
6817,7669
6817,8594
" /> 
<polyline style="fill-rule:evenodd;"
points="6502,8594
6187,8594
6187,7669
6502,7669
6502,8594
" /> 
<polyline style="fill-rule:evenodd;"
points="6504,4828
6189,4828
6189,3903
6504,3903
6504,4828
" /> 
<polyline style="fill-rule:evenodd;"
points="8714,4828
8399,4828
8399,3903
8714,3903
8714,4828
" /> 
<polyline style="fill-rule:evenodd;"
points="8394,4828
8079,4828
8079,3903
8394,3903
8394,4828
" /> 
<polyline style="fill-rule:evenodd;"
points="8074,4828
7759,4828
7759,3903
8074,3903
8074,4828
" /> 
<polyline style="fill-rule:evenodd;"
points="7764,4828
7449,4828
7449,3903
7764,3903
7764,4828
" /> 
<polyline style="fill-rule:evenodd;"
points="7444,4828
7129,4828
7129,3903
7444,3903
7444,4828
" /> 
<polyline style="fill-rule:evenodd;"
points="7134,4828
6819,4828
6819,3903
7134,3903
7134,4828
" /> 
<polyline style="fill-rule:evenodd;"
points="6814,4828
6499,4828
6499,3903
6814,3903
6814,4828
" /> 
<polyline style="fill-rule:evenodd;"
points="6019,7505
5094,7505
5094,7190
6019,7190
6019,7505
" /> 
<polyline style="fill-rule:evenodd;"
points="6019,7191
5094,7191
5094,6876
6019,6876
6019,7191
" /> 
<polyline style="fill-rule:evenodd;"
points="6019,6875
5094,6875
5094,6560
6019,6560
6019,6875
" /> 
<polyline style="fill-rule:evenodd;"
points="6019,6561
5094,6561
5094,6246
6019,6246
6019,6561
" /> 
<polyline style="fill-rule:evenodd;"
points="6019,6245
5094,6245
5094,5930
6019,5930
6019,6245
" /> 
<polyline style="fill-rule:evenodd;"
points="6019,5931
5094,5931
5094,5616
6019,5616
6019,5931
" /> 
<polyline style="fill-rule:evenodd;"
points="6019,5615
5094,5615
5094,5300
6019,5300
6019,5615
" /> 
<polyline style="fill-rule:evenodd;"
points="6019,5301
5094,5301
5094,4986
6019,4986
6019,5301
" /> 
<polyline style="fill-rule:evenodd;"
points="9799,7503
8874,7503
8874,7188
9799,7188
9799,7503
" /> 
<polyline style="fill-rule:evenodd;"
points="9799,7193
8874,7193
8874,6878
9799,6878
9799,7193
" /> 
<polyline style="fill-rule:evenodd;"
points="9799,6873
8874,6873
8874,6558
9799,6558
9799,6873
" /> 
<polyline style="fill-rule:evenodd;"
points="9799,6563
8874,6563
8874,6248
9799,6248
9799,6563
" /> 
<polyline style="fill-rule:evenodd;"
points="9799,6253
8874,6253
8874,5938
9799,5938
9799,6253
" /> 
<polyline style="fill-rule:evenodd;"
points="9799,5933
8874,5933
8874,5618
9799,5618
9799,5933
" /> 
<polyline style="fill-rule:evenodd;"
points="9799,5613
8874,5613
8874,5298
9799,5298
9799,5613
" /> 
<polyline style="fill-rule:evenodd;"
points="9799,5293
8874,5293
8874,4978
9799,4978
9799,5293
" /> 
<circle cx="9598.43" cy="11236.2" r="348.898" /> 
<circle cx="7598.43" cy="11236.2" r="348.898" /> 
<polyline style="fill-rule:evenodd;"
points="8548,9947
8548,10635
8060,10635
8060,9947
8548,9947
" /> 
<polyline style="fill-rule:evenodd;"
points="7798,9947
7798,10635
7310,10635
7310,9947
7798,9947
" /> 
<polyline style="fill-rule:evenodd;"
points="8766,10595
8766,9908
9254,9908
9254,10595
8766,10595
" /> 
<polyline style="fill-rule:evenodd;"
points="9516,10595
9516,9908
10004,9908
10004,10595
9516,10595
" /> 
<circle cx="5120" cy="11150" r="438.898" /> 
<circle cx="3980" cy="11150" r="438.898" /> 
<polyline style="fill-rule:evenodd;"
points="3981,10343
3981,9656
4468,9656
4468,10343
3981,10343
" /> 
<polyline style="fill-rule:evenodd;"
points="4731,10343
4731,9656
5218,9656
5218,10343
4731,10343
" /> 
<circle cx="5300" cy="8500" r="438.898" /> 
<circle cx="1700" cy="2200" r="868.898" /> 
<circle cx="2000" cy="11300" r="868.898" /> 
<polyline style="fill-rule:evenodd;"
points="4534,8277
4534,9122
3767,9122
3767,8277
4534,8277
" /> 
<polyline style="fill-rule:evenodd;"
points="3432,8277
3432,9122
2665,9122
2665,8277
3432,8277
" /> 
<polyline style="fill-rule:evenodd;"
points="5776,10357
6623,10357
6623,11124
5776,11124
5776,10357
" /> 
<polyline style="fill-rule:evenodd;"
points="5776,11475
6623,11475
6623,12242
5776,12242
5776,11475
" /> 
<polyline style="fill-rule:evenodd;"
points="6543,10218
5856,10218
5856,9731
6543,9731
6543,10218
" /> 
<polyline style="fill-rule:evenodd;"
points="6543,9468
5856,9468
5856,8981
6543,8981
6543,9468
" /> 
</g> 
</svg>
